<svg style="vertical-align: 0;" xmlns="http://www.w3.org/2000/svg" width="7.819ex" height="2.262ex" role="img" focusable="false" viewBox="0 -1099.3 3800 1099.3" xmlns:xlink="http://www.w3.org/1999/xlink"><defs><path id="MJX-1-SRCCODE-I-1D453" d="M169 0 278 540Q298 637 352 681Q407 724 489 724Q534 724 570 710Q605 696 630 675L593 626Q571 643 547 652Q522 662 491 662Q440 662 403 633Q367 605 354 537L246 0ZM115 424 126 481 268 486H548L535 424ZZ"></path><path id="MJX-1-SRCCODE-N-2DC" d="M372 577Q346 577 326 590Q307 602 291 619Q275 636 261 648Q246 661 229 661Q207 661 196 639Q185 618 182 582L127 585Q128 625 139 655Q150 686 172 703Q193 721 228 721Q255 721 274 708Q293 696 309 679Q325 662 340 650Q354 637 372 637Q394 637 405 659Q416 681 418 716L473 712Q472 674 461 643Q450 613 429 595Q407 577 372 577ZZ"></path><path id="MJX-1-SRCCODE-I-1D465" d="M10 0 244 253 119 486H199L257 375Q266 358 277 333Q289 309 296 292H300Q312 308 332 334Q352 360 365 375L464 486H554L331 246L470 0H388L324 117Q315 135 302 159Q290 183 280 201H275Q266 189 254 175Q242 160 230 146Q217 132 208 121L100 0ZZ"></path><path id="MJX-1-SRCCODE-I-1D434" d="M-23 0 333 656H422L503 0H423L386 377Q381 430 377 484Q372 539 366 591H362Q334 537 309 486Q284 434 256 379L62 0ZM137 205 152 265H440L429 205ZZ"></path></defs><g stroke="currentColor" fill="currentColor" stroke-width="0" transform="scale(1,-1)"><g data-mml-node="math" data-latex="{\textstyle \tilde{f} \quad \tilde{x} \quad \tilde{A}}"><g data-mml-node="TeXAtom" data-latex="{\textstyle \tilde{f} \quad \tilde{x} \quad \tilde{A}}" data-mjx-texclass="ORD"><g data-mml-node="mstyle"><g data-mml-node="TeXAtom" data-latex="\tilde{f}" data-mjx-texclass="ORD"><g data-mml-node="mover"><g data-mml-node="mi" data-latex="f"><use data-c="1D453" xlink:href="#MJX-1-SRCCODE-I-1D453"></use></g><g data-mml-node="mo" transform="translate(370,278.3) translate(-300 0)"><use data-c="2DC" xlink:href="#MJX-1-SRCCODE-N-2DC"></use></g></g></g><g data-mml-node="mspace" data-latex="\quad" transform="translate(600,0)"></g><g data-mml-node="TeXAtom" data-latex="\tilde{x}" data-mjx-texclass="ORD" transform="translate(1600,0)"><g data-mml-node="mover"><g data-mml-node="mi" data-latex="x"><use data-c="1D465" xlink:href="#MJX-1-SRCCODE-I-1D465"></use></g><g data-mml-node="mo" transform="translate(347,40.3) translate(-300 0)"><use data-c="2DC" xlink:href="#MJX-1-SRCCODE-N-2DC"></use></g></g></g><g data-mml-node="mspace" data-latex="\quad" transform="translate(2200,0)"></g><g data-mml-node="TeXAtom" data-latex="\tilde{A}" data-mjx-texclass="ORD" transform="translate(3200,0)"><g data-mml-node="mover"><g data-mml-node="mi" data-latex="A"><use data-c="1D434" xlink:href="#MJX-1-SRCCODE-I-1D434"></use></g><g data-mml-node="mo" transform="translate(364,210.3) translate(-300 0)"><use data-c="2DC" xlink:href="#MJX-1-SRCCODE-N-2DC"></use></g></g></g></g></g></g></g></svg>