<svg style="vertical-align: -0.393ex;" xmlns="http://www.w3.org/2000/svg" width="25.387ex" height="1.883ex" role="img" focusable="false" viewBox="0 -724 12338 915" xmlns:xlink="http://www.w3.org/1999/xlink"><defs><path id="MJX-1-SRCCODE-I-1D6FC" d="M250.93796872089723 -12.0Q163.83402584980348 -12.0 122.89349714156936 51.54779052734375Q81.95296843333522 115.0955810546875 107.26929301135765 234.19952392578125Q125.10195045234971 318.0955810546875 168.3677172933252 376.9115905761719Q211.63348413430072 435.72760009765625 267.92194114440844 466.9115905761719Q324.21039815451616 498.0955810546875 381.26655049826616 498.0955810546875Q414.32270284201616 498.0955810546875 443.42618085831424 485.803466796875Q472.5296588746123 473.5113525390625 492.41763979692143 445.9790954589844Q512.3056207192305 418.44683837890625 516.0413436915575 370.910400390625H518.77730560562L563.580861992601 486.0955810546875H645.098195976976Q624.9056392069874 438.14337158203125 603.1935596042921 385.6391906738281Q581.4814800015968 333.135009765625 561.5100184744199 281.7628479003906Q541.5385569472429 230.39068603515625 526.1046420355883 185.38650512695312Q510.6707271239338 140.38232421875 503.5321789843122 106.798095703125Q498.3526047372451 82.43011474609375 509.72646757358984 69.45401000976562Q521.1003304099346 56.4779052734375 540.8362923239971 56.4779052734375Q549.1003304099346 56.4779052734375 558.5015336115762 58.60992431640625Q567.9027368132178 60.741943359375 576.2763684122903 63.741943359375L574.7119735516153 0.94384765625Q563.8175891424088 -3.528076171875 547.1334552011842 -7.7640380859375Q530.4493212599598 -12 508.82566403339723 -12.0Q465.8340258498035 -12.0 444.7215056477005 12.084228515625Q423.60898544559745 36.16845703125 434.0575283367344 86.752685546875H431.3215664226719Q347.0024828810535 -12.0 250.93796872089723 -12.0ZM282.3690686314078 57.2138671875Q316.69762087750155 57.2138671875 351.99438196295546 77.74612426757812Q387.2911430484093 98.27838134765625 415.16436129763304 132.68280029296875Q443.0375795468567 167.08721923828125 454.97402654163017 207.8876953125L481.7048933440505 299.471923828125Q480.34037950394156 339.12066650390625 470.5221917051795 364.76104736328125Q460.7040039064175 390.40142822265625 445.4602852985264 404.1415710449219Q430.2165666906354 417.8817138671875 413.03736117825804 423.3817138671875Q395.85815566588064 428.8817138671875 379.27392715025564 428.8817138671875Q342.4172987322869 428.8817138671875 304.42773941471154 406.9533996582031Q266.4381800971362 385.02508544921875 236.25226329915864 342.09259033203125Q206.06634650118113 299.16009521484375 192.41498435783086 234.93548583984375Q174.54652026948716 150.8709716796875 198.34130885474434 104.04241943359375Q222.13609744000155 57.2138671875 282.3690686314078 57.2138671875ZZ"></path><path id="MJX-1-SRCCODE-I-1D6FD" d="M55.12556194390494 -178.528076171875 198.30386427022992 495.0728759765625Q212.22035128505775 560.5447998046875 245.34320607458565 612.3847045898438Q278.46606086411356 664.224609375 329.4926895882696 694.3285522460938Q380.51931831242575 724.4324951171875 449.0390326678945 724.4324951171875Q498.4548041522695 724.4324951171875 537.5440529572782 705.5645141601562Q576.6333017622867 686.696533203125 595.583680047315 648.224609375Q614.5340583323434 609.752685546875 602.1394965376128 551.4408569335938Q590.6495066583144 497.38470458984375 554.9663910159201 456.06451416015625Q519.2832753735257 414.74432373046875 460.43642175301324 385.05615234375L459.5861955063331 381.05615234375Q508.45257792484387 373.68817138671875 540.1147979354746 348.42413330078125Q571.7770179461054 323.16009521484375 583.691090165092 283.5Q595.6051623840784 243.83990478515625 584.8310589567767 193.1517333984375Q570.8261969847896 127.2640380859375 533.0007753045717 81.528076171875Q495.1753536243537 35.7921142578125 445.09608988356297 11.89605712890625Q395.01682614277223 -12.0 343.96067379902223 -12.0Q297.952311982616 -12.0 255.13005947522103 4.344085693359375Q212.30780696782608 20.68817138671875 183.5847021405258 62.1123046875Q172.95270354727867 0.95220947265625 161.5379030191309 -57.94384765625Q150.12310249098317 -116.83990478515625 138.11481975640493 -178.528076171875ZM339.5375256626578 57.2138671875Q376.7059826939078 57.2138671875 410.6226105203713 74.11410522460938Q444.53923834683485 91.01434326171875 469.4656580090325 122.33871459960938Q494.39207767123014 153.6630859375 503.72425000436596 197.5675048828125Q516.1683313545101 256.1123046875 489.4550558509435 294.91278076171875Q462.7417803473769 333.7132568359375 391.5565996833144 333.7132568359375Q366.13246638253315 333.7132568359375 340.37684136798174 327.7132568359375L341.4214632410816 391.0394287109375Q396.76615086209176 401.99163818359375 434.02487968031335 426.1839904785156Q471.28360849853493 450.3763427734375 492.3250325594978 481.62066650390625Q513.3664566204607 512.864990234375 520.2363251707154 545.1851806640625Q532.2433578484024 601.673828125 506.0802479964311 629.5501708984375Q479.9171381444598 657.426513671875 436.06050972649103 657.426513671875Q379.51570992180353 657.426513671875 337.0554858959871 612.7341613769531Q294.5952618701707 568.0418090820312 275.0606154951532 479.6009521484375Q255.7844905193299 392.3763427734375 236.76003048866994 306.3357238769531Q217.73557045801 220.29510498046875 199.19540739624924 133.07049560546875Q225.31678546492554 87.798095703125 263.07888896222914 72.5059814453125Q300.8409924595328 57.2138671875 339.5375256626578 57.2138671875ZZ"></path><path id="MJX-1-SRCCODE-I-1D6FE" d="M216.61420940484243 -178.528076171875Q223.00432193635564 -156.63201904296875 227.7199101734311 -139.39605712890625Q232.43549841050654 -122.16009521484375 236.57895811429367 -103.53225708007812Q240.7224178180808 -84.9044189453125 246.43757388493697 -58.0167236328125Q258.8577841368467 0.415771484375 256.65533075173306 71.89605712890625Q254.4528773666194 143.3763427734375 240.3872049870435 217.85244750976562Q226.32153260746762 292.32855224609375 202.91014152934292 359.8524475097656Q179.4987504512182 427.3763427734375 149.36674552242238 477.2640380859375L236.25580831076618 498.0955810546875Q262.2264328035638 454.82318115234375 282.2360985286094 390.2066955566406Q302.24576425365495 325.5902099609375 314.63987277698004 249.55377197265625Q327.03398130030513 173.517333984375 327.85944387996636 96.93310546875H331.85944387996636Q405.9824139571632 191.78973388671875 465.25724304255294 288.2264099121094Q524.5320721279427 384.6630859375 558.940481133226 486.0955810546875H641.7218532035384Q616.2572145547697 423.99163818359375 588.1705465340123 368.99163818359375Q560.0838785132548 313.99163818359375 524.6788802192983 258.359619140625Q489.2738819253418 202.72760009765625 441.56963433966666 141.22760009765625Q393.8653867539916 79.72760009765625 329.79760801835636 4.6236572265625Q327.14153524378764 -38.3201904296875 318.572150939698 -87.42413330078125Q310.0027666356084 -136.528076171875 301.0753910454674 -178.528076171875ZZ"></path><path id="MJX-1-SRCCODE-I-1D6FF" d="M297.873454560741 -12.0Q237.72172116230348 -12.0 189.5104136692529 14.2359619140625Q141.2991061762023 40.471923828125 118.02674019667381 90.07586669921875Q94.75437421714533 139.6798095703125 109.52108747865326 209.1517333984375Q123.2709827693353 273.83990478515625 164.81867210232807 321.8440856933594Q206.3663614353208 369.8482666015625 265.0242219672913 401.640380859375Q323.6820824992618 433.4324951171875 387.93128340359783 449.16845703125L418.7547799085761 401.4097900390625Q326.4335782109915 383.19354248046875 265.9299455962072 333.96893310546875Q205.42631298142288 284.74432373046875 189.7837250160558 211.1517333984375Q179.7016369425163 163.71923828125 194.64593872776805 129.13082885742188Q209.59024051301978 94.54241943359375 241.21326641850845 75.51016235351562Q272.8362923239971 56.4779052734375 313.90080648415335 56.4779052734375Q364.0776253318096 56.4779052734375 402.0620092605964 76.53823852539062Q440.04639318938325 96.59857177734375 464.8686051675923 133.135009765625Q489.69081714580136 169.67144775390625 500.0517429988803 218.415771484375Q510.04367875631596 265.42413330078125 495.5028632628246 300.4044189453125Q480.96204776933325 335.38470458984375 451.6095282076735 363.70489501953125Q422.2570086460138 392.02508544921875 385.9167805894526 417.1851806640625Q344.6429383900057 447.13739013671875 309.715969543343 476.2174377441406Q274.78900069668026 505.2974853515625 256.8866630938639 538.6893615722656Q238.9843254910475 572.0812377929688 248.07829280533423 614.864990234375Q257.30659991430434 658.28076171875 304.4888258125838 691.3566284179688Q351.67105171086325 724.4324951171875 437.23855659367575 724.4324951171875Q489.65432807805075 724.4324951171875 546.5305639857327 714.3285522460938Q603.4067998934145 704.224609375 668.9081909355377 680.2723999023438L634.7192176578478 614.9462280273438Q566.4607507849311 640.7944946289062 515.0932116791262 650.5824279785156Q463.7256725733214 660.370361328125 422.35769161629014 660.370361328125Q378.7089489405089 660.370361328125 355.27631560845384 645.1260375976562Q331.8436822763988 629.8817138671875 327.5125569170672 609.50537109375Q321.98430895470193 583.4970092773438 337.64892620210725 560.9928283691406Q353.31354344951257 538.4886474609375 385.3644972273085 514.696533203125Q417.41545100510444 490.9044189453125 459.45461358753835 460.1123046875Q501.95185081100095 430.27239990234375 533.9503913020236 396.6923522949219Q565.9489317930462 363.1123046875 579.9093541215914 320.18817138671875Q593.8697764501367 277.2640380859375 581.4734372964614 218.94384765625Q566.8631575689267 150.2078857421875 527.9592647072843 98.15591430664062Q489.05537184564207 46.10394287109375 430.6203275098321 17.051971435546875Q372.18528317402223 -12.0 297.873454560741 -12.0ZZ"></path><path id="MJX-1-SRCCODE-I-3F5" d="M247 -10Q158 -10 103 40Q48 90 48 190Q48 251 64 314Q81 376 115 429Q149 482 202 514Q255 546 328 546Q363 546 398 539Q433 532 461 520L436 447Q416 456 388 464Q361 472 329 472Q273 472 226 432Q179 393 155 312H380L363 238H139Q138 226 138 215Q137 204 137 191Q137 137 166 100Q195 63 256 63Q295 63 324 73Q354 83 385 96V22Q357 8 322 -1Q288 -10 247 -10ZZ"></path><path id="MJX-1-SRCCODE-I-1D701" d="M427.9971385725738 -184.2078857421875 367.9584157309378 -157.3763427734375Q401.2266914778666 -124.68817138671875 416.11157630096886 -106.90023803710938Q430.9964611240711 -89.1123046875 435.30371538516835 -68.8482666015625Q438.46997007092887 -53.95220947265625 429.2422339650601 -44.372161865234375Q420.0144978591913 -34.7921142578125 393.53093055798263 -26.528076171875Q367.047363256774 -18.2640380859375 316.74876625663984 -8.0Q278.28912353515625 0.0 244.5942925413805 14.683990478515625Q210.89946154760474 29.36798095703125 188.2010171066077 55.419952392578125Q165.5025726656107 81.471923828125 157.92530675232229 122.2078857421875Q150.3480408390339 162.94384765625 162.9891884838416 222.415771484375Q173.1715870636575 270.3201904296875 201.0444924399334 318.724609375Q228.9173978162093 367.1290283203125 269.3114024511896 413.7694091796875Q309.70540708616994 460.4097900390625 358.52933486711225 503.258056640625Q407.35326264805457 546.1063232421875 460.18705023065195 583.4504089355469Q513.0208378132493 620.7944946289062 564.8270967027149 650.370361328125Q539.9006133341659 650.0023803710938 504.09328595653193 649.8183898925781Q468.285958578898 649.6343994140625 428.20356090370825 649.2664184570312Q388.1211632285185 648.8984375 350.19652535843124 648.0304565429688Q312.271887488344 647.1624755859375 283.63885930676327 645.426513671875L297.8814203341042 712.4324951171875H674.3760492403542L660.1334882130133 645.426513671875H655.3975262989508Q589.0243571744226 610.4743041992188 521.7429303853797 561.258056640625Q454.46150359633697 512.0418090820312 396.7316975347011 455.033447265625Q339.0018914730652 398.02508544921875 299.68325936645476 339.35662841796875Q260.3646272598443 280.68817138671875 248.76061396620767 226.0955810546875Q236.56311846614054 168.71087646484375 249.55300097875016 135.2025146484375Q262.5428834913598 101.69415283203125 296.20273469022294 84.58602905273438Q329.86258588908606 67.4779052734375 378.8970861711764 57.741943359375Q456.1585385189081 42.90203857421875 490.12350506890857 21.434295654296875Q524.088471618909 -0.033447265625 513.4845146336423 -49.921142578125Q508.82020582601905 -71.864990234375 488.0572779758189 -107.27658081054688Q467.29435012561873 -142.68817138671875 427.9971385725738 -184.2078857421875ZZ"></path><path id="MJX-1-SRCCODE-I-1D702" d="M393.0467045220299 -178.528076171875Q407.0116456452893 -119.2640380859375 421.42014660833456 -57.2921142578125Q435.82864757137986 4.6798095703125 449.5030028027713 66.415771484375Q463.1773580341627 128.1517333984375 475.97481875380396 186.62783813476562Q488.7722794734452 245.10394287109375 499.8831210669278 297.3763427734375Q514.3847094569581 365.6009521484375 499.21115359835017 396.13739013671875Q484.03759773974224 426.673828125 433.34106453661724 426.673828125Q403.804626548336 426.673828125 376.7213589376737 417.77777099609375Q349.63809132701147 408.8817138671875 319.82565652650993 386.90142822265625Q290.0132217260084 364.921142578125 251.34257987488562 324.4324951171875L182.38232421875 0.0H100.1290283203125L175.08505518178833 352.640380859375Q181.32741223720558 382.00836181640625 187.2769831081799 414.9480285644531Q193.22655397915423 447.8876953125 196.50798601603842 486.0955810546875H271.40166277385094L258.1168304240972 390.9271240234375H260.8527923381597Q313.9942234426364 447.51971435546875 363.6375586013106 472.8076477050781Q413.2808937599849 498.0955810546875 473.23310323264116 498.0955810546875Q551.1207985451412 498.0955810546875 575.1696280710038 449.54779052734375Q599.2184575968664 401.0 579.4506973615544 308.0L476.0359623345299 -178.528076171875ZZ"></path><path id="MJX-1-SRCCODE-I-1D703" d="M297.44932125995973 -12Q227.24143551777223 -12.0 184.26946806276004 27.2359619140625Q141.29750060774788 66.471923828125 131.16828660967445 148.55197143554688Q121.039072611601 230.63201904296875 148.29227734288804 358.8482666015625Q173.63069566020027 478.05615234375 218.57499829357775 559.7682189941406Q263.5193009269552 641.4802856445312 323.6471477544561 682.9563903808594Q383.774994581957 724.4324951171875 453.9828803241445 724.4324951171875Q524.5587470233633 724.4324951171875 566.831458560416 682.7723999023438Q609.1041700974686 641.1123046875 619.350709246022 559.584228515625Q629.5972483945753 478.05615234375 604.258830077263 358.8482666015625Q577.005625345976 230.63201904296875 531.9831059456119 148.55197143554688Q486.96058654524785 66.471923828125 427.49288725221317 27.2359619140625Q368.0251879591785 -12.0 297.44932125995973 -12ZM312.0047493552471 56.4779052734375Q354.9653206443096 56.4779052734375 394.08530792082956 84.854248046875Q433.2052951973495 113.2305908203125 466.04402168362185 179.4271240234375Q498.8827481698942 245.6236572265625 522.9493818350755 358.8482666015625Q539.8094087838214 438.16845703125 540.8854517066961 494.6248474121094Q541.9614946295708 551.0812377929688 529.980924439873 586.8536376953125Q518.0003542501752 622.6260375976562 494.6661127121724 639.2903137207031Q471.3318711741696 655.95458984375 439.4274522288571 655.95458984375Q407.5230332835446 655.95458984375 377.10458927467243 639.2903137207031Q346.68614526580023 622.6260375976562 319.498258424248 586.8536376953125Q292.3103715826958 551.0812377929688 269.3860620582585 494.6248474121094Q246.4617525338213 438.16845703125 229.60172558507554 358.8482666015625Q205.5350919198942 245.6236572265625 210.23280342190313 179.4271240234375Q214.93051492391206 113.2305908203125 242.17133697356394 84.854248046875Q269.41215902321585 56.4779052734375 312.0047493552471 56.4779052734375ZM187.5306516757496 330.6571044921875 200.0524438293852 389.5675048828125H565.5578149231352L553.0360227694996 330.6571044921875ZZ"></path><path id="MJX-1-SRCCODE-I-1D705" d="M109.76104736328125 0.0 184.71707422475708 352.640380859375Q190.95943128017433 382.00836181640625 197.19752170573966 417.7921142578125Q203.435612131305 453.57586669921875 203.61192888713217 486.0955810546875H285.1292628715072Q286.3923879389386 466.78375244140625 281.50413964988707 435.8638000488281Q276.6158913608355 404.94384765625 269.7698939088152 372.7359619140625L237.42676128306962 220.573486328125H241.42676128306962Q296.68744378111745 290.37396240234375 364.15739266501896 347.38232421875Q431.6273415489205 404.39068603515625 502.8453374975983 443.50299072265625Q574.063333446276 482.61529541015625 639.2498268654537 498.0955810546875L631.2808170063129 420.258056640625Q589.896671358312 409.56988525390625 544.5677118248864 388.5095520019531Q499.23875229146086 367.44921875 452.16326962603773 336.308837890625Q405.0877869606146 305.16845703125 356.712911540764 263.92413330078125Q308.33803612091344 222.6798095703125 260.83996496077276 171.51971435546875Q237.58769063346227 145.5675048828125 220.0133812690487 108.93548583984375Q202.4390719046351 72.303466796875 192.4506908650887 25.31182861328125L187.07049560546875 0.0ZM482.370045086654 -8.2078857421875Q459.0412229534203 27.4324951171875 432.05363613604163 72.864990234375Q405.0660493186629 118.2974853515625 381.3993302790399 168.56988525390625Q357.73261123941677 218.84228515625 342.23437339648115 269.00238037109375L408.6911489509388 321.59259033203125Q423.78999977464156 269.06451416015625 451.0574844943296 212.11648559570312Q478.3249692140176 155.16845703125 511.6068453517038 100.50836181640625Q544.8887214893899 45.8482666015625 576.9916381835938 0.0ZZ"></path><path id="MJX-1-SRCCODE-I-1D706" d="M142.8933605163415 -8.2078857421875 55.96893310546875 0.0 385.66572591527296 496.7359619140625 382.3143305299272 520.1123046875Q376.6795983360497 567.1851806640625 365.2364500431651 596.5657043457031Q353.79330175028053 625.9462280273438 334.50774573157776 639.8464660644531Q315.222189712875 653.7467041015625 285.21382789646873 653.7467041015625Q265.00594215428123 653.7467041015625 249.6014237203396 649.1146850585938Q234.19690528639796 644.482666015625 219.18926568318588 637.7467041015625L212.91315080972322 706.224609375Q232.09928837014513 714.0645141601562 254.51300817526982 719.2485046386719Q276.9267279803945 724.4324951171875 308.86221382023825 724.4324951171875Q360.381928175707 724.4324951171875 390.73644504408014 702.4844665527344Q421.0909619124533 680.5364379882812 438.20755704805003 635.16845703125Q455.32415218364685 589.8004760742188 465.0587798512948 518.9605712890625L552.7670288085938 0.0H464.09796142578125L404.5144473257854 402.8028564453125H400.5144473257854ZZ"></path><path id="MJX-1-SRCCODE-I-1D707" d="M43.98432145028888 -187.359619140625 187.13164324260092 486.0955810546875H269.38493914103844L207.51904414594478 195.0394287109375Q193.28613534528125 128.078857421875 210.91769052172623 93.75030517578125Q228.54924569817118 59.4217529296875 281.99010263176496 59.4217529296875Q306.57433114738996 59.4217529296875 332.44089060423227 67.05377197265625Q358.3074500610746 74.685791015625 387.7763183955493 97.40203857421875Q417.24518673002405 120.1182861328125 451.71356416494746 163.8709716796875L520.2045192191634 486.0955810546875H603.1937770316634Q588.1154467591005 420.35125732421875 572.0562644456668 351.4790954589844Q555.9970821322332 282.60693359375 541.0373886232528 216.31063842773438Q526.0776951142724 150.01434326171875 513.6676430525353 91.629638671875Q509.6971269576188 72.9498291015625 516.102433517761 64.7138671875Q522.5077400779033 56.4779052734375 534.0836067771221 56.4779052734375Q537.8195686911846 56.4779052734375 541.741856493504 56.9779052734375Q545.6641442958233 57.4779052734375 552.5087199004621 58.4779052734375L550.3123059968184 -4.3201904296875Q541.1327989009966 -7.16009521484375 528.9147173070407 -9.580047607421875Q516.6966357130848 -12.0 501.33701657245973 -12.0Q463.24143551777223 -12.0 448.96748548415354 10.683990478515625Q434.69353545053485 33.36798095703125 443.888466356503 92.4324951171875H441.1525044424405Q400.76926294661416 40.16009521484375 355.6360566620593 15.183990478515625Q310.5028503775044 -9.7921142578125 266.1265076040669 -9.7921142578125Q232.9018982290669 -9.7921142578125 207.47215620740963 0.608123779296875Q182.04241418575236 11.00836181640625 169.07772904250643 43.39306640625Q158.64773547400154 -7.40740966796875 151.39631625054068 -44.119476318359375Q144.14489702707985 -80.83154296875 138.48746457935547 -113.88351440429688Q132.8300321316311 -146.93548583984375 126.97357926278889 -187.359619140625ZZ"></path><path id="MJX-1-SRCCODE-I-1D708" d="M256.66546630859375 0.0Q258.9144333788895 95.528076171875 244.66390075892173 180.89605712890625Q230.41336813895396 266.2640380859375 205.32471334061594 340.63201904296875Q180.23605854227793 415.0 148.41453604976613 477.2640380859375L235.30359883810993 498.0955810546875Q254.5043367676829 459.14337158203125 271.7372542276315 409.82318115234375Q288.9701716875802 360.50299072265625 301.8201452255444 305.91876220703125Q314.67011876350864 251.33453369140625 321.59822743278386 195.14218139648438Q328.5263361020591 138.9498291015625 327.40257913690044 84.62127685546875H331.40257913690044Q377.8175722524527 147.20550537109375 423.05157813988774 215.10992431640625Q468.28558402732284 283.01434326171875 504.56100439193926 351.8667907714844Q540.8364247565557 420.71923828125 560.6286525199447 486.0955810546875H643.4100245902572Q612.9609453362841 401.51971435546875 568.4550794735264 322.8876953125Q523.9492136107689 244.25567626953125 466.52521153784176 165.3876953125Q409.10120946491463 86.51971435546875 337.76702880859375 0.0ZZ"></path><path id="MJX-1-SRCCODE-I-1D70B" d="M500.07297848652223 -12.0Q462.08970211933473 -12.0 441.71006525770406 2.01971435546875Q421.33042839607333 16.0394287109375 416.5640604954285 43.3709716796875Q411.79769259478377 70.7025146484375 420.2080253865362 110.27001953125Q424.1922543895144 129.01434326171875 432.10037079797513 163.86679077148438Q440.00848720643586 198.71923828125 450.3466273141303 242.6517333984375Q460.68476742182463 286.584228515625 471.19686027700175 332.2007141113281Q481.7089531321789 377.81719970703125 490.8450120008932 417.8255615234375H293.5618699110494Q271.9456044796319 316.1290283203125 245.61516297751336 208.96475219726562Q219.2847214753948 101.80047607421875 189.3314769595171 -4.94384765625L108.1290283203125 0.0Q143.15682792230626 107.8482666015625 169.4605195236791 213.77658081054688Q195.76421112505193 319.70489501953125 216.62040262589318 417.8255615234375H115.56425028214316L129.06883111819764 481.359619140625L199.75530046916342 486.0955810546875H676.570119805101L662.0588791883931 417.8255615234375H570.1544602430806Q559.4378638556651 376.81719970703125 547.9118988098224 329.64874267578125Q536.3859337639798 282.48028564453125 525.9801191896377 237.36380004882812Q515.5743046152955 192.247314453125 507.7830087880088 157.078857421875Q499.991712960722 121.910400390625 496.2421342587036 104.27001953125Q490.928220216953 79.27001953125 499.6899039755532 67.87396240234375Q508.45158773415335 56.4779052734375 531.3476448630596 56.4779052734375Q536.3476448630596 56.4779052734375 542.6145082700177 57.9779052734375Q548.881371676976 59.4779052734375 559.5227030428565 61.741943359375L557.3262891392128 -1.05615234375Q545.9820453251178 -5.16009521484375 532.2873690835545 -8.580047607421875Q518.592692841991 -12.0 500.07297848652223 -12.0ZZ"></path><path id="MJX-1-SRCCODE-I-1D70C" d="M55.12556194390494 -178.528076171875 145.82270991807962 248.16845703125Q163.83211727339005 332.89605712890625 206.16489074035601 388.07586669921875Q248.49766420732198 443.25567626953125 305.76980266529404 470.6756286621094Q363.04194112326616 498.0955810546875 424.92963643576616 498.0955810546875Q532.2414650490474 498.0955810546875 575.1133050014062 431.7795715332031Q617.9851449537648 365.46356201171875 593.5309821715397 250.415771484375Q575.9228168413349 167.57586669921875 532.9661642443489 108.971923828125Q490.00951164736273 50.36798095703125 434.8811498520987 19.183990478515625Q379.75278805683473 -12.0 325.75278805683473 -12.0Q283.7444262404285 -12.0 246.1980803904392 2.2921142578125Q208.65173454044992 16.584228515625 182.4896674027133 56.9605712890625Q174.59353460342277 13.3763427734375 167.6856818459887 -24.071685791015625Q160.77782908855465 -61.51971435546875 153.63218357662282 -98.59976196289062Q146.48653806469102 -135.6798095703125 138.11481975640493 -178.528076171875ZM326.2734875767203 57.2138671875Q365.60203982281405 57.2138671875 402.22409343661093 80.27420043945312Q438.84614705040786 103.33453369140625 467.23813340816423 146.50299072265625Q495.63011976592054 189.67144775390625 508.38529082506653 249.6798095703125Q519.7869057472058 303.3201904296875 513.8599023366485 343.6726379394531Q507.9328989260911 384.02508544921875 482.1637462901265 406.4533996582031Q456.3945936541619 428.8817138671875 406.74585097838064 428.8817138671875Q368.4734510760369 428.8817138671875 331.45084744322907 408.6415710449219Q294.42824381042124 388.40142822265625 265.75577626947893 348.1290283203125Q237.08330872853657 307.85662841796875 224.13589748806575 246.94384765625L197.70727054627974 122.60693359375Q224.13061858845043 80.22222900390625 257.93383408844477 68.71804809570312Q291.73704958843905 57.2138671875 326.2734875767203 57.2138671875ZZ"></path><path id="MJX-1-SRCCODE-I-1D70E" d="M287.03354977558473 -12.0Q225.45768307636598 -12.0 178.98981897985448 16.86798095703125Q132.52195488334297 45.7359619140625 112.81702787362052 101.471923828125Q93.11210086389806 157.2078857421875 110.21693630377624 237.6798095703125Q128.36246081271474 323.04779052734375 173.36309879346513 378.1517333984375Q218.3637367742155 433.25567626953125 277.50336627793945 459.6756286621094Q336.64299578166344 486.0955810546875 397.11491960978844 486.0955810546875H675.0026149222884L660.022073703661 415.61767578125Q618.9201197937381 419.3536376953125 582.4560417496136 421.4056091308594Q545.9919637054892 423.45758056640625 504.2780662146633 423.8255615234375L503.42783996798323 419.8255615234375Q544.9198893711415 393.87335205078125 560.7140089538732 344.8410949707031Q576.508128536605 295.808837890625 561.962352667995 227.3763427734375Q545.8743351989427 151.68817138671875 504.8645723320692 98.16009521484375Q463.8548094651956 44.63201904296875 407.1000939270308 16.316009521484375Q350.345378388866 -12.0 287.03354977558473 -12.0ZM302.3249397849346 56.4779052734375Q344.5495491599346 56.4779052734375 381.3509664068444 78.14218139648438Q418.1523836537542 99.80645751953125 444.85655973138887 139.60693359375Q471.5607358090235 179.40740966796875 483.16474910266015 234.0Q493.5035812164493 282.640380859375 486.0734206943274 324.5967712402344Q478.6432601722056 366.55316162109375 452.50579478866587 392.0854187011719Q426.3683294051261 417.61767578125 380.3516057723136 417.61767578125Q338.4949773543448 417.61767578125 300.97560731816145 397.90142822265625Q263.456237281978 378.1851806640625 235.78193890060044 338.28076171875Q208.10764051922283 298.3763427734375 195.20619411627624 237.6798095703125Q183.36753052167978 181.9832763671875 193.58847903048485 141.26284790039062Q203.8094275392899 100.54241943359375 232.13886945312788 78.51016235351562Q260.46831136696585 56.4779052734375 302.3249397849346 56.4779052734375ZZ"></path><path id="MJX-1-SRCCODE-I-1D70F" d="M373.4409594435535 -12.0Q329.929606904491 -12.0 307.43597478270704 3.835723876953125Q284.94234266092303 19.67144775390625 280.5689564132956 50.583038330078125Q276.19557016566813 81.49462890625 285.7809318211643 126.5902099609375L347.9535963754163 419.089599609375H155.20091082854125L168.4368120752289 481.359619140625L239.12328142619467 486.0955810546875H637.2021388480697L622.9595778207288 419.089599609375H428.7349684457288Q410.55037979819866 341.70489501953125 393.613809072988 266.1081237792969Q376.6772383477773 190.5113525390625 361.8150406933317 120.5902099609375Q354.5540883081439 86.43011474609375 365.9747618492736 71.45401000976562Q377.39543539040335 56.4779052734375 406.18754964821585 56.4779052734375Q420.92351156227835 56.4779052734375 436.4659498360983 59.029876708984375Q452.00838810991826 61.58184814453125 468.77307422787067 66.685791015625L467.1561887043162 3.1517333984375Q449.1090617580602 -3.05615234375 424.58683921408806 -7.528076171875Q400.064616670116 -12.0 373.4409594435535 -12.0ZZ"></path><path id="MJX-1-SRCCODE-I-3D5" d="M274 -9Q213 -9 160 20Q108 50 76 106Q44 163 44 244Q44 325 76 381Q108 437 160 466Q213 495 274 495L271 430Q231 430 198 408Q166 385 147 344Q128 303 128 244Q128 185 147 143Q166 101 198 79Q231 57 271 56ZM326 -9 329 56Q370 57 402 79Q434 101 453 143Q472 185 472 244Q472 303 453 344Q434 385 402 408Q370 430 329 430L326 495Q387 495 440 466Q492 437 524 381Q556 325 556 244Q556 163 524 106Q492 50 440 20Q387 -9 326 -9ZM260 -179V622H340V-179ZZ"></path><path id="MJX-1-SRCCODE-I-1D712" d="M98.92376015698969 -190.528076171875 18.27729534234244 -178.528076171875 296.30019167958375 163.471923828125 160.72636466304738 477.2640380859375 246.67157979514118 498.0955810546875 351.1849070138666 236.3656005859375H355.1849070138666L545.468557305101 486.0955810546875H632.457815117601L378.7577702714446 163.6798095703125L524.121050484396 -169.696533203125L439.43987343823966 -190.528076171875L325.2918831534259 95.72998046875H321.2918831534259ZZ"></path><path id="MJX-1-SRCCODE-I-1D713" d="M266.44932125995973 -12Q194.44932125995973 -12 154.50718326755538 16.5Q114.565045275151 45 103.01170820115713 96.5Q91.45837112716328 148 105.69966075905475 215L135.0324662695178 353Q141.19660655794846 382 147.21097309305918 415.0Q153.2253396281699 448 156.30248897163074 486H236.30248897163074Q234.9885749298802 461 230.03699120311958 433.0Q225.08540747635897 405 218.28359750291827 373Q212.33201377615762 345 205.13648208355193 313.5Q197.94095039094623 282 191.70192322585564 255.0Q185.46289606076505 228 181.84943451237467 211Q171.85927611388362 164 177.81351817459785 128.5Q183.76776023531207 93 208.72918556358164 74.0Q233.6906108918512 55 278.69061089185124 55ZM321.44932125995973 -12 336.69061089185124 55Q407.69061089185124 55 457.1058824136823 104.0Q506.5211539355134 153 528.4144797875257 256Q536.4916291309866 294 540.2185522277673 328.0Q543.945475324548 362 543.2037898255039 398.5Q542.4621043264597 435 535.8145930399406 479L615.8531677116711 498Q622.1383486832001 457 623.4549210589042 418.5Q624.7714934346084 380 620.9817875294775 341.0Q617.1920816243467 302 607.8395929108657 258Q580.2072398937628 128 504.8282805768613 58.0Q429.44932125995973 -12 321.44932125995973 -12ZM223.95237546106603 -179 394.21018135875374 622H474.21018135875374L303.952375461066 -179ZZ"></path><path id="MJX-1-SRCCODE-I-1D714" d="M187.44932125995973 -12Q143.44932125995973 -12 113.58207014421532 14.5Q83.71481902847091 41 74.69287335865211 95.0Q65.6709276888333 149 82.67545262243507 229Q93.72839382927621 281 115.71855222776725 328.0Q137.7087106262583 375 167.74236449723423 417.5Q197.77601836821017 460 230.853167711671 498L295.8388011765603 465Q260.3365387097594 425 233.65311108546354 386.5Q206.9696834611677 348 188.64858615186176 306.5Q170.32748884255585 265 159.48710419738472 214Q143.33280551046306 138 157.61798648199215 97.0Q171.90316745352123 56 206.90316745352123 56Q225.90316745352123 56 243.9538461935615 68.0Q262.0045249336018 80 277.13727381785736 106.5Q292.27002270211295 133 301.8350679772639 178Q306.0861992106644 198 309.33733044406483 218.0Q312.58846167746526 238 315.76470603420574 260.0Q318.9409503909462 282 321.4674209943668 308H406.4674209943668Q398.9409503909462 282 392.26470603420574 260.0Q385.58846167746526 238 380.83733044406483 218.0Q376.0861992106644 198 371.8350679772639 178Q362.0574661404429 132 365.3184389753523 105.0Q368.5794118102617 78 381.7412896318915 67.0Q394.90316745352123 56 413.90316745352123 56Q449.90316745352123 56 480.83054304366215 98.0Q511.7579186338031 140 530.250339499095 227Q540.8781675825961 277 541.561595206892 315.5Q542.2450228311878 354 532.8970590513086 390.0Q523.5490952714295 426 505.2639142999003 467L584.8531677116711 498Q602.7760183682102 460 613.7737559014092 420.0Q624.7714934346084 380 626.1001698786224 334.5Q627.4288463226364 289 615.3131223074452 232Q589.3812217837025 110 533.9152715218311 49.0Q478.44932125995973 -12 409.44932125995973 -12Q374.44932125995973 -12 349.09417421252516 7.5Q323.7390271650906 27 315.6664027552315 69H311.6664027552315Q286.7390271650906 27 254.59417421252516 7.5Q222.44932125995973 -12 187.44932125995973 -12ZZ"></path></defs><g stroke="currentColor" fill="currentColor" stroke-width="0" transform="scale(1,-1)"><g data-mml-node="math" data-latex="\alpha \beta \gamma \delta \epsilon \zeta \eta \theta \kappa \lambda \mu \nu \pi \rho \sigma \tau \phi \chi \psi \omega"><g data-mml-node="mi" data-latex="\alpha"><use data-c="1D6FC" xlink:href="#MJX-1-SRCCODE-I-1D6FC"></use></g><g data-mml-node="mi" data-latex="\beta" transform="translate(600,0)"><use data-c="1D6FD" xlink:href="#MJX-1-SRCCODE-I-1D6FD"></use></g><g data-mml-node="mi" data-latex="\gamma" transform="translate(1200,0)"><use data-c="1D6FE" xlink:href="#MJX-1-SRCCODE-I-1D6FE"></use></g><g data-mml-node="mi" data-latex="\delta" transform="translate(1800,0)"><use data-c="1D6FF" xlink:href="#MJX-1-SRCCODE-I-1D6FF"></use></g><g data-mml-node="mi" data-latex="\epsilon" transform="translate(2431,0)"><use data-c="3F5" xlink:href="#MJX-1-SRCCODE-I-3F5"></use></g><g data-mml-node="mi" data-latex="\zeta" transform="translate(2884,0)"><use data-c="1D701" xlink:href="#MJX-1-SRCCODE-I-1D701"></use></g><g data-mml-node="mi" data-latex="\eta" transform="translate(3616,0)"><use data-c="1D702" xlink:href="#MJX-1-SRCCODE-I-1D702"></use></g><g data-mml-node="mi" data-latex="\theta" transform="translate(4216,0)"><use data-c="1D703" xlink:href="#MJX-1-SRCCODE-I-1D703"></use></g><g data-mml-node="mi" data-latex="\kappa" transform="translate(4816,0)"><use data-c="1D705" xlink:href="#MJX-1-SRCCODE-I-1D705"></use></g><g data-mml-node="mi" data-latex="\lambda" transform="translate(5472,0)"><use data-c="1D706" xlink:href="#MJX-1-SRCCODE-I-1D706"></use></g><g data-mml-node="mi" data-latex="\mu" transform="translate(6072,0)"><use data-c="1D707" xlink:href="#MJX-1-SRCCODE-I-1D707"></use></g><g data-mml-node="mi" data-latex="\nu" transform="translate(6672,0)"><use data-c="1D708" xlink:href="#MJX-1-SRCCODE-I-1D708"></use></g><g data-mml-node="mi" data-latex="\pi" transform="translate(7342,0)"><use data-c="1D70B" xlink:href="#MJX-1-SRCCODE-I-1D70B"></use></g><g data-mml-node="mi" data-latex="\rho" transform="translate(8010,0)"><use data-c="1D70C" xlink:href="#MJX-1-SRCCODE-I-1D70C"></use></g><g data-mml-node="mi" data-latex="\sigma" transform="translate(8610,0)"><use data-c="1D70E" xlink:href="#MJX-1-SRCCODE-I-1D70E"></use></g><g data-mml-node="mi" data-latex="\tau" transform="translate(9269,0)"><use data-c="1D70F" xlink:href="#MJX-1-SRCCODE-I-1D70F"></use></g><g data-mml-node="mi" data-latex="\phi" transform="translate(9938,0)"><use data-c="3D5" xlink:href="#MJX-1-SRCCODE-I-3D5"></use></g><g data-mml-node="mi" data-latex="\chi" transform="translate(10538,0)"><use data-c="1D712" xlink:href="#MJX-1-SRCCODE-I-1D712"></use></g><g data-mml-node="mi" data-latex="\psi" transform="translate(11138,0)"><use data-c="1D713" xlink:href="#MJX-1-SRCCODE-I-1D713"></use></g><g data-mml-node="mi" data-latex="\omega" transform="translate(11738,0)"><use data-c="1D714" xlink:href="#MJX-1-SRCCODE-I-1D714"></use></g></g></g></svg>