<svg style="vertical-align: -0.025ex;" xmlns="http://www.w3.org/2000/svg" width="23.189ex" height="1.49ex" role="img" focusable="false" viewBox="0 -712 11270 724" xmlns:xlink="http://www.w3.org/1999/xlink"><defs><path id="MJX-1-SRCCODE-N-61" d="M246 -12Q201 -12 163 4Q125 21 103 52Q81 83 81 126Q81 208 163 250Q245 293 433 308Q432 341 419 369Q407 397 379 413Q351 430 304 430Q273 430 242 422Q212 413 184 400Q157 386 134 372L102 428Q126 444 161 461Q195 477 235 487Q275 498 318 498Q385 498 428 473Q472 448 494 404Q515 359 515 298V0H448L441 66H438Q398 34 348 11Q298 -12 246 -12ZM268 54Q310 54 351 73Q392 92 433 126V254Q329 245 270 229Q210 213 186 188Q161 164 161 132Q161 105 176 87Q191 70 216 62Q240 54 268 54ZZ"></path><path id="MJX-1-SRCCODE-N-62" d="M320 -12Q284 -12 244 5Q203 23 169 54H166L159 0H93V712H175V518L172 424H175Q208 458 252 478Q295 498 338 498Q404 498 449 468Q494 437 517 381Q540 326 540 251Q540 168 509 109Q479 50 429 19Q379 -12 320 -12ZM307 57Q349 57 383 80Q416 103 436 147Q455 190 455 250Q455 303 441 344Q427 384 397 406Q367 429 318 429Q285 429 249 411Q212 394 175 356V114Q210 83 245 70Q281 57 307 57ZZ"></path><path id="MJX-1-SRCCODE-N-63" d="M346 -12Q270 -12 210 18Q149 48 114 105Q80 162 80 242Q80 324 117 381Q154 438 216 468Q277 498 351 498Q411 498 455 477Q498 456 528 427L487 374Q457 400 425 415Q393 430 354 430Q298 430 255 406Q212 383 189 340Q165 298 165 242Q165 187 188 145Q211 103 254 80Q296 56 352 56Q397 56 435 74Q472 92 502 117L539 64Q499 28 450 8Q400 -12 346 -12ZZ"></path><path id="MJX-1-SRCCODE-I-1D44E" d="M167 -12Q91 -12 46 36Q0 83 0 174Q0 240 21 298Q41 356 78 401Q115 446 163 472Q211 498 267 498Q319 498 357 478Q396 458 416 425H420L439 486H501L404 0H341L349 74H345Q307 35 260 12Q214 -12 167 -12ZM190 52Q230 52 273 76Q317 100 357 146L402 362Q377 401 344 417Q311 434 277 434Q236 434 199 414Q163 393 136 359Q109 324 94 279Q79 234 79 186Q79 118 109 85Q140 52 190 52ZZ"></path><path id="MJX-1-SRCCODE-I-1D44F" d="M234 -12Q186 -12 147 9Q108 30 85 61H82L64 0H0L142 712H219L180 522L154 415H157Q194 449 240 474Q287 498 334 498Q412 498 456 448Q501 398 501 305Q501 240 481 182Q461 124 424 81Q388 37 339 13Q291 -12 234 -12ZM226 52Q269 52 304 71Q340 90 366 124Q393 157 408 201Q422 245 422 294Q422 365 392 399Q361 434 309 434Q272 434 228 409Q184 384 145 340L101 122Q127 84 159 68Q192 52 226 52ZZ"></path><path id="MJX-1-SRCCODE-I-1D450" d="M224 -12Q160 -12 110 12Q59 36 30 84Q0 131 0 202Q0 269 24 323Q48 377 89 416Q131 455 183 477Q236 498 293 498Q357 498 404 472Q450 446 476 411L427 367Q400 401 366 417Q331 434 283 434Q246 434 209 417Q172 400 142 369Q112 339 95 298Q77 258 77 211Q77 131 122 92Q166 52 234 52Q277 52 316 71Q355 90 389 119L420 67Q382 32 330 10Q278 -12 224 -12ZZ"></path><path id="MJX-1-SRCCODE-B-61" d="M224 -12Q174 -12 138 8Q101 28 81 62Q61 96 61 138Q61 221 137 265Q212 309 388 319Q385 342 373 358Q361 374 338 382Q316 391 282 391Q258 391 234 385Q210 380 184 369Q159 359 131 345L79 441Q113 461 151 476Q188 491 229 500Q269 508 311 508Q381 508 431 484Q481 459 508 409Q535 360 535 284V0H415L404 56H400Q363 28 318 8Q273 -12 224 -12ZM271 102Q304 102 333 115Q362 129 388 149V231Q315 227 274 216Q234 205 218 188Q202 171 202 149Q202 134 211 123Q219 112 235 107Q250 102 271 102ZZ"></path><path id="MJX-1-SRCCODE-B-62" d="M338 -12Q304 -12 268 5Q233 22 203 54H199L187 0H72V701H219V529L214 451H217Q246 478 281 493Q317 508 353 508Q416 508 460 477Q505 446 529 389Q553 333 553 257Q553 172 522 111Q492 51 443 19Q394 -12 338 -12ZM305 108Q332 108 354 123Q376 138 389 171Q402 203 402 254Q402 299 392 328Q382 358 362 373Q343 388 311 388Q287 388 265 377Q242 367 219 342V141Q240 124 263 116Q285 108 305 108ZZ"></path><path id="MJX-1-SRCCODE-B-63" d="M343 -12Q265 -12 202 19Q140 49 103 108Q67 166 67 248Q67 330 107 389Q147 447 212 477Q278 508 354 508Q413 508 461 489Q509 471 540 441L472 350Q443 370 417 380Q390 389 362 389Q320 389 287 372Q254 355 236 323Q218 291 218 248Q218 205 235 173Q253 141 285 124Q316 107 357 107Q396 107 429 121Q461 135 488 154L547 61Q503 24 448 6Q394 -12 343 -12ZZ"></path><path id="MJX-1-SRCCODE-BI-1D482" d="M162 -12Q88 -12 44 38Q0 87 0 180Q0 248 21 307Q43 367 80 412Q117 457 165 483Q213 508 266 508Q315 508 350 491Q386 473 403 443H407L428 496H538L438 0H327L329 68H325Q290 31 247 9Q204 -12 162 -12ZM213 100Q241 100 275 118Q308 137 337 176L373 349Q359 374 335 385Q312 396 290 396Q261 396 234 381Q207 366 186 339Q165 312 153 276Q141 240 141 197Q141 147 161 123Q181 100 213 100ZZ"></path><path id="MJX-1-SRCCODE-BI-1D483" d="M271 -12Q229 -12 192 6Q155 24 136 53H134L113 0H0L140 701H277L245 542L216 436H218Q251 469 293 489Q335 508 374 508Q452 508 495 458Q538 407 538 314Q538 246 516 187Q495 128 457 83Q420 38 372 13Q325 -12 271 -12ZM252 100Q281 100 307 114Q333 129 353 156Q372 182 384 218Q396 254 396 297Q396 349 375 373Q354 396 321 396Q293 396 262 377Q230 358 200 316L166 146Q182 122 204 111Q227 100 252 100ZZ"></path><path id="MJX-1-SRCCODE-BI-1D484" d="M238 -12Q173 -12 119 12Q65 36 33 84Q0 132 0 205Q0 273 25 329Q49 385 91 425Q134 464 188 486Q243 508 303 508Q370 508 419 480Q467 453 494 418L411 342Q386 370 357 383Q327 396 293 396Q264 396 237 383Q209 370 187 345Q165 321 152 288Q139 256 139 218Q139 158 174 129Q210 100 258 100Q295 100 324 116Q354 132 383 156L431 63Q394 29 345 9Q296 -12 238 -12ZZ"></path></defs><g stroke="currentColor" fill="currentColor" stroke-width="0" transform="scale(1,-1)"><g data-mml-node="math" data-latex="\mathrm{a\,b\,c} \quad a\,b\,c \quad \mathbf{a\,b\,c} \quad \boldsymbol{a\,b\,c}"><g data-mml-node="TeXAtom" data-latex="\mathrm{a\,b\,c}" data-mjx-texclass="ORD"><g data-mml-node="mi" data-latex="a"><use data-c="61" xlink:href="#MJX-1-SRCCODE-N-61"></use></g><g data-mml-node="mspace" data-latex="\," transform="translate(600,0)"></g><g data-mml-node="mi" data-latex="b" transform="translate(767,0)"><use data-c="62" xlink:href="#MJX-1-SRCCODE-N-62"></use></g><g data-mml-node="mspace" data-latex="\," transform="translate(1367,0)"></g><g data-mml-node="mi" data-latex="c" transform="translate(1534,0)"><use data-c="63" xlink:href="#MJX-1-SRCCODE-N-63"></use></g></g><g data-mml-node="mspace" data-latex="\quad" transform="translate(2134,0)"></g><g data-mml-node="mi" data-latex="a" transform="translate(3134,0)"><use data-c="1D44E" xlink:href="#MJX-1-SRCCODE-I-1D44E"></use></g><g data-mml-node="mspace" data-latex="\," transform="translate(3682,0)"></g><g data-mml-node="mi" data-latex="b" transform="translate(3849,0)"><use data-c="1D44F" xlink:href="#MJX-1-SRCCODE-I-1D44F"></use></g><g data-mml-node="mspace" data-latex="\," transform="translate(4413,0)"></g><g data-mml-node="mi" data-latex="c" transform="translate(4580,0)"><use data-c="1D450" xlink:href="#MJX-1-SRCCODE-I-1D450"></use></g><g data-mml-node="mspace" data-latex="\quad" transform="translate(5113,0)"></g><g data-mml-node="TeXAtom" data-latex="\mathbf{a\,b\,c}" data-mjx-texclass="ORD" transform="translate(6113,0)"><g data-mml-node="mi" data-latex="a"><use data-c="61" xlink:href="#MJX-1-SRCCODE-B-61"></use></g><g data-mml-node="mspace" data-latex="\," transform="translate(600,0)"></g><g data-mml-node="mi" data-latex="b" transform="translate(767,0)"><use data-c="62" xlink:href="#MJX-1-SRCCODE-B-62"></use></g><g data-mml-node="mspace" data-latex="\," transform="translate(1367,0)"></g><g data-mml-node="mi" data-latex="c" transform="translate(1534,0)"><use data-c="63" xlink:href="#MJX-1-SRCCODE-B-63"></use></g></g><g data-mml-node="mspace" data-latex="\quad" transform="translate(8247,0)"></g><g data-mml-node="mi" data-latex="a" transform="translate(9247,0)"><use data-c="1D482" xlink:href="#MJX-1-SRCCODE-BI-1D482"></use></g><g data-mml-node="mspace" data-latex="\," transform="translate(9812,0)"></g><g data-mml-node="mi" data-latex="b" transform="translate(9979,0)"><use data-c="1D483" xlink:href="#MJX-1-SRCCODE-BI-1D483"></use></g><g data-mml-node="mspace" data-latex="\," transform="translate(10563,0)"></g><g data-mml-node="mi" data-latex="\boldsymbol{a\,b\,c}" transform="translate(10730,0)"><use data-c="1D484" xlink:href="#MJX-1-SRCCODE-BI-1D484"></use></g></g></g></svg>