<svg style="vertical-align: -0.019ex;" xmlns="http://www.w3.org/2000/svg" width="4.48ex" height="1.638ex" role="img" focusable="false" viewBox="0 -867.9 2401.5 877.9" xmlns:xlink="http://www.w3.org/1999/xlink"><defs><path id="MJX-1-NOTO-I-55" d="M300 -10Q226 -10 176 13Q127 36 103 80Q79 124 79 188Q79 205 82 230Q85 255 91 283L183 714H272L179 278Q174 255 171 230Q168 205 168 189Q168 133 202 101Q237 69 305 69Q364 69 402 90Q441 110 464 150Q487 191 500 250L599 714H688L588 243Q572 165 538 108Q503 51 445 20Q387 -10 300 -10ZZ"></path><path id="MJX-1-NOTO-N-3A3" d="M36 0V74L270 373L42 639V714H517V634H262Q248 634 224 634Q200 634 178 634Q156 635 145 635L370 374L135 78Q173 79 210 79Q248 79 288 79H546V0ZZ"></path><path id="MJX-1-NOTO-I-56" d="M169 0 92 714H180L225 262Q228 235 230 207Q232 179 234 152Q235 125 234 101H236Q251 137 270 176Q289 216 313 263L545 714H644L264 0ZZ"></path><path id="MJX-1-NOTO-I-54" d="M152 0 286 635H90L107 714H589L573 635H377L242 0ZZ"></path></defs><g stroke="currentColor" fill="currentColor" stroke-width="0" transform="scale(1,-1)"><g data-mml-node="math" data-latex="{\textstyle U \Sigma V^T}"><g data-mml-node="TeXAtom" data-latex="{\textstyle U \Sigma V^T}" data-mjx-texclass="ORD"><g data-mml-node="mstyle"><g data-mml-node="mi" data-latex="U"><use data-c="55" xlink:href="#MJX-1-NOTO-I-55"></use></g><g data-mml-node="mi" data-latex="\Sigma" transform="translate(688,0)"><use data-c="3A3" xlink:href="#MJX-1-NOTO-N-3A3"></use></g><g data-mml-node="msup" data-latex="V^T" transform="translate(1258,0)"><g data-mml-node="mi" data-latex="V"><use data-c="56" xlink:href="#MJX-1-NOTO-I-56"></use></g><g data-mml-node="mi" transform="translate(677,363) scale(0.707)" data-latex="T"><use data-c="54" xlink:href="#MJX-1-NOTO-I-54"></use></g></g></g></g></g></g></svg>