<svg style="vertical-align: -0.448ex;" xmlns="http://www.w3.org/2000/svg" width="7.201ex" height="1.78ex" role="img" focusable="false" viewBox="0 -714 3859.5 954" xmlns:xlink="http://www.w3.org/1999/xlink"><defs><path id="MJX-1-NOTO-N-1D53C" d="M77 0V714H511V661H250V400H471V347H250V53H511V0ZM130 53H197V661H130ZZ"></path><path id="MJX-1-NOTO-N-5B" d="M304 -158H80V714H304V642H166V-86H304ZZ"></path><path id="MJX-1-NOTO-I-58" d="M-52 0 239 378 112 714H202L299 441L511 714H609L339 374L474 0H380L278 309L46 0ZZ"></path><path id="MJX-1-NOTO-I-69" d="M28 0 142 536H230L116 0ZM213 625Q192 625 178 638Q165 650 165 672Q165 689 172 704Q179 718 192 727Q205 736 224 736Q247 736 258 724Q270 712 270 691Q270 660 252 642Q234 625 213 625ZZ"></path><path id="MJX-1-NOTO-N-5D" d="M25 -86H163V642H25V714H249V-158H25ZZ"></path><path id="MJX-1-NOTO-N-3D" d="M56 416V487H514V416ZM56 217V288H514V217ZZ"></path><path id="MJX-1-NOTO-I-1D707" d="M20 -240 184 536H273L199 190Q186 128 198 96Q211 63 262 63Q306 63 346 93Q386 123 416 176Q446 229 460 296L511 536H598L509 118Q502 87 512 74Q521 62 538 62Q546 62 555 64Q564 66 569 67L555 3Q547 -1 530 -6Q513 -10 496 -10Q459 -10 440 11Q421 32 423 99H417Q391 56 350 23Q308 -10 252 -10Q213 -10 196 2Q180 15 165 35H161Q160 17 154 -13Q148 -43 140 -84L107 -240ZZ"></path></defs><g stroke="currentColor" fill="currentColor" stroke-width="0" transform="scale(1,-1)"><g data-mml-node="math" data-latex="\mathbb{E}[X_i] = \mu"><g data-mml-node="TeXAtom" data-latex="\mathbb{E}" data-mjx-texclass="ORD"><g data-mml-node="mi" data-latex="E"><use data-c="1D53C" xlink:href="#MJX-1-NOTO-N-1D53C"></use></g></g><g data-mml-node="mo" data-latex="[" transform="translate(561,0) translate(0 -28)"><use data-c="5B" xlink:href="#MJX-1-NOTO-N-5B"></use></g><g data-mml-node="msub" data-latex="X_i" transform="translate(890,0)"><g data-mml-node="mi" data-latex="X"><use data-c="58" xlink:href="#MJX-1-NOTO-I-58"></use></g><g data-mml-node="mi" transform="translate(642,-150) scale(0.707)" data-latex="i"><use data-c="69" xlink:href="#MJX-1-NOTO-I-69"></use></g></g><g data-mml-node="mo" data-latex="]" transform="translate(1772.9,0) translate(0 -28)"><use data-c="5D" xlink:href="#MJX-1-NOTO-N-5D"></use></g><g data-mml-node="mo" data-latex="=" transform="translate(2379.7,0)"><use data-c="3D" xlink:href="#MJX-1-NOTO-N-3D"></use></g><g data-mml-node="mi" data-latex="\mu" transform="translate(3229.5,0)"><use data-c="1D707" xlink:href="#MJX-1-NOTO-I-1D707"></use></g></g></g></svg>