<svg style="vertical-align: -0.566ex;" xmlns="http://www.w3.org/2000/svg" width="12.811ex" height="2.262ex" role="img" focusable="false" viewBox="0 -750 5662.6 1000" xmlns:xlink="http://www.w3.org/1999/xlink"><defs><path id="MJX-1-NCM-N-2016" d="M264-250C279-250 287-242 287-226L287 726C287 742 279 750 264 750C249 750 241 742 241 726L241-226C241-242 249-250 264-250M134-250C149-250 157-242 157-226L157 726C157 742 149 750 134 750C119 750 111 742 111 726L111-226C111-242 119-250 134-250Z"></path><path id="MJX-1-NCM-I-1D447" d="M344 631C344 628 343 621 340 611L208 83C204 68 200 59 197 55C188 44 154 39 94 39C63 39 49 42 49 16C49 5 56 0 69 0C120 0 192 4 235 3L317 2C331 2 386 0 403 0C420 0 428 8 428 24C428 34 416 39 391 39C339 39 309 41 300 46C297 48 295 52 295 58L430 603C433 617 436 626 439 629C443 635 467 638 511 638C566 638 604 634 623 625C642 616 652 595 652 561C652 543 649 517 644 483C642 475 641 469 641 464C641 453 646 447 657 447C666 447 672 456 675 473L702 645C703 650 704 656 704 662C704 672 694 677 673 677L125 677C99 677 97 674 89 655L30 481C27 472 25 466 24 462C24 452 29 447 40 447C48 447 55 455 60 470C85 543 110 588 133 607C159 628 209 638 282 638L321 638C332 638 344 639 344 631Z"></path><path id="MJX-1-NCM-I-1D465" d="M527 373C527 419 482 442 432 442C389 442 355 419 329 373C308 419 273 442 222 442C173 442 133 419 101 374C74 335 60 306 60 287C60 278 65 273 75 273C84 273 90 278 92 287C111 345 153 413 220 413C253 413 269 392 269 351C269 330 251 252 216 118C199 51 169 18 126 18C112 18 99 21 88 26C114 36 127 54 127 80C127 106 114 119 87 119C54 119 29 91 29 58C29 12 76-11 125-11C167-11 201 12 228 58C247 12 283-11 335-11C383-11 423 12 455 57C482 96 496 125 496 144C496 153 491 158 481 158C472 158 467 153 464 144C447 87 402 18 337 18C304 18 287 38 287 79C287 92 292 120 303 165L337 300C356 375 387 413 431 413C445 413 458 410 469 405C442 396 429 378 429 351C429 325 443 312 470 312C502 312 527 341 527 373Z"></path><path id="MJX-1-NCM-N-2264" d="M668 38C686 29 703 44 703 60C703 69 698 76 689 80L155 333L689 586C698 590 703 597 703 606C703 623 695 631 679 631C675 631 671 630 668 629L94 357C84 352 79 344 79 333C79 322 84 315 94 310M678-72L100-72C84-72 76-80 76-95C76-111 84-119 100-119L678-119C694-119 702-111 702-95C702-83 691-72 678-72Z"></path><path id="MJX-1-NCM-I-1D43E" d="M804 680C783 680 715 683 694 683C679 683 671 675 671 659C671 651 678 646 692 643C706 640 714 635 714 628C714 617 703 602 680 585L302 296L379 602C384 623 393 636 406 641C412 643 429 644 458 644C484 644 496 644 496 668C496 678 490 683 478 683L351 680L223 683C207 684 199 676 199 660C199 649 210 644 232 644C252 644 293 647 293 631C293 629 292 623 289 613L156 82C151 60 141 47 126 42C119 40 101 39 70 39C48 39 38 37 38 16C38 5 44 0 57 0L183 3L246 2C257 2 299 0 310 0C326 0 334 8 334 24C334 34 324 39 303 39C262 39 242 43 242 52C242 57 245 72 251 95L290 249L433 359L546 98C553 81 557 70 557 65C557 48 541 39 510 39C492 39 484 35 484 15C484 5 490 0 502 0C524 0 600 3 622 3C641 3 701 0 720 0C734 0 741 8 741 24C741 33 733 38 718 39C677 39 667 50 653 81L512 404C511 409 509 413 508 416L708 570C757 608 799 631 833 639C857 643 889 642 889 668C889 678 884 683 874 683C860 683 818 680 804 680Z"></path></defs><g stroke="currentColor" fill="currentColor" stroke-width="0" transform="scale(1,-1)"><g data-mml-node="math" data-latex="\|Tx\| \leq K\|x\|"><g data-mml-node="mo" data-latex="\|"><use data-c="2016" xlink:href="#MJX-1-NCM-N-2016"></use></g><g data-mml-node="mi" data-latex="T" transform="translate(398,0)"><use data-c="1D447" xlink:href="#MJX-1-NCM-I-1D447"></use></g><g data-mml-node="mi" data-latex="x" transform="translate(1102,0)"><use data-c="1D465" xlink:href="#MJX-1-NCM-I-1D465"></use></g><g data-mml-node="mo" data-latex="\|" transform="translate(1674,0)"><use data-c="2016" xlink:href="#MJX-1-NCM-N-2016"></use></g><g data-mml-node="mo" data-latex="\leq" transform="translate(2349.8,0)"><use data-c="2264" xlink:href="#MJX-1-NCM-N-2264"></use></g><g data-mml-node="mi" data-latex="K" transform="translate(3405.6,0)"><use data-c="1D43E" xlink:href="#MJX-1-NCM-I-1D43E"></use></g><g data-mml-node="mo" data-latex="\|" transform="translate(4294.6,0)"><use data-c="2016" xlink:href="#MJX-1-NCM-N-2016"></use></g><g data-mml-node="mi" data-latex="x" transform="translate(4692.6,0)"><use data-c="1D465" xlink:href="#MJX-1-NCM-I-1D465"></use></g><g data-mml-node="mo" data-latex="\|" transform="translate(5264.6,0)"><use data-c="2016" xlink:href="#MJX-1-NCM-N-2016"></use></g></g></g></svg>