<svg style="vertical-align: -1.495ex;" xmlns="http://www.w3.org/2000/svg" width="15.101ex" height="3.845ex" role="img" focusable="false" viewBox="0 -1189 7641.3 1945.5" xmlns:xlink="http://www.w3.org/1999/xlink"><defs><path id="MJX-1-LATO-S3-28" d="M84 280C84 -73 173 -298 297 -544L357 -506C241 -262 183 -42 183 280C183 602 241 821 357 1065L297 1103C173 857 84 632 84 280ZZ"></path><path id="MJX-1-LATO-I-61" d="M376 444Q366 447 355 448Q344 448 334 448Q304 448 276 439Q248 429 223 412Q198 394 178 370Q158 346 144 316Q130 288 122 255Q114 222 114 188Q114 67 191 67Q216 67 239 82Q262 98 284 125Q305 152 323 189Q341 226 355 271ZM342 134Q324 102 304 76Q283 50 260 31Q236 13 211 3Q185 -7 158 -7Q128 -7 103 5Q78 16 61 39Q44 62 34 95Q25 128 25 172Q25 216 36 259Q48 302 68 340Q89 378 118 410Q147 442 183 465Q218 488 260 501Q300 514 346 514Q378 514 409 508Q440 503 470 490L409 0H363Q346 0 339 9Q333 18 333 31ZZ"></path><path id="MJX-1-LATO-I-62" d="M130 111Q148 84 175 73Q202 62 229 62Q255 62 278 73Q301 84 320 103Q339 122 354 147Q368 172 379 201Q390 230 395 260Q400 291 400 321Q400 380 379 412Q358 442 318 442Q294 442 270 428Q246 412 222 386Q200 359 180 322Q160 286 146 242ZM162 378Q181 409 203 434Q224 459 248 477Q272 494 298 504Q324 514 352 514Q416 514 452 467Q488 420 488 330Q488 288 480 248Q472 206 456 169Q440 132 418 100Q396 68 368 44Q341 20 309 6Q277 -7 242 -7Q202 -7 169 10Q136 27 115 58L108 26Q104 13 98 6Q92 0 76 0H30L118 736H206ZZ"></path><path id="MJX-1-LATO-S3-29" d="M43 -506 103 -544C227 -298 316 -73 316 280C316 632 227 857 103 1103L43 1065C158 821 217 602 217 280C217 -42 158 -262 43 -506ZZ"></path><path id="MJX-1-LATO-S3-5B" d="M110 -544H336V-476H190V1035H336V1103H110ZZ"></path><path id="MJX-1-LATO-S3-5D" d="M51 -466V-544H278V1103H51V1024H188V-466ZZ"></path><path id="MJX-1-LATO-S3-7B" d="M79 242C141 242 165 205 165 122V-382C165 -492 217 -543 358 -543V-469C285 -469 255 -445 255 -392V131C255 229 221 262 169 280C221 298 255 331 255 429V952C255 1005 285 1029 358 1029V1103C217 1103 165 1053 165 942V438C165 355 141 318 79 318ZZ"></path><path id="MJX-1-LATO-S3-7D" d="M55 -469V-543C197 -543 248 -492 248 -382V122C248 205 272 241 334 241V318C272 318 248 355 248 438V942C248 1053 197 1103 55 1103V1029C128 1029 158 1005 158 952V429C158 331 192 298 244 279C192 261 158 229 158 131V-392C158 -445 128 -469 55 -469ZZ"></path></defs><g stroke="currentColor" fill="currentColor" stroke-width="0" transform="scale(1,-1)"><g data-mml-node="math" data-latex="\left( \frac{a}{b} \right) \quad \left[ \frac{a}{b} \right] \quad \left\{ \frac{a}{b} \right\}"><g data-mml-node="mrow" data-latex="\left( \frac{a}{b} \right)"><g data-mml-node="mo" data-latex="\left(" transform="translate(0 -29.5)"><use data-c="28" xlink:href="#MJX-1-LATO-S3-28"></use></g><g data-mml-node="mfrac" data-latex="\frac{a}{b}" transform="translate(400,0)"><g data-mml-node="mi" data-latex="a" transform="translate(228.5,676)"><use data-c="61" xlink:href="#MJX-1-LATO-I-61"></use></g><g data-mml-node="mi" data-latex="b" transform="translate(220,-749.5)"><use data-c="62" xlink:href="#MJX-1-LATO-I-62"></use></g><rect width="728" height="75" x="120" y="212.5"></rect></g><g data-mml-node="mo" data-latex="\right)" transform="translate(1368,0) translate(0 -29.5)"><use data-c="29" xlink:href="#MJX-1-LATO-S3-29"></use></g></g><g data-mml-node="mspace" data-latex="\quad" transform="translate(1768,0)"></g><g data-mml-node="mrow" data-latex="\left[ \frac{a}{b} \right]" transform="translate(2934.7,0)"><g data-mml-node="mo" data-latex="\left[" transform="translate(0 -29.5)"><use data-c="5B" xlink:href="#MJX-1-LATO-S3-5B"></use></g><g data-mml-node="mfrac" data-latex="\frac{a}{b}" transform="translate(388,0)"><g data-mml-node="mi" data-latex="a" transform="translate(228.5,676)"><use data-c="61" xlink:href="#MJX-1-LATO-I-61"></use></g><g data-mml-node="mi" data-latex="b" transform="translate(220,-749.5)"><use data-c="62" xlink:href="#MJX-1-LATO-I-62"></use></g><rect width="728" height="75" x="120" y="212.5"></rect></g><g data-mml-node="mo" data-latex="\right]" transform="translate(1356,0) translate(0 -29.5)"><use data-c="5D" xlink:href="#MJX-1-LATO-S3-5D"></use></g></g><g data-mml-node="mspace" data-latex="\quad" transform="translate(4678.7,0)"></g><g data-mml-node="mrow" data-latex="\left\{ \frac{a}{b} \right\}" transform="translate(5845.3,0)"><g data-mml-node="mo" data-latex="\left\{" transform="translate(0 -30)"><use data-c="7B" xlink:href="#MJX-1-LATO-S3-7B"></use></g><g data-mml-node="mfrac" data-latex="\frac{a}{b}" transform="translate(414,0)"><g data-mml-node="mi" data-latex="a" transform="translate(228.5,676)"><use data-c="61" xlink:href="#MJX-1-LATO-I-61"></use></g><g data-mml-node="mi" data-latex="b" transform="translate(220,-749.5)"><use data-c="62" xlink:href="#MJX-1-LATO-I-62"></use></g><rect width="728" height="75" x="120" y="212.5"></rect></g><g data-mml-node="mo" data-latex="\right\}" transform="translate(1382,0) translate(0 -30)"><use data-c="7D" xlink:href="#MJX-1-LATO-S3-7D"></use></g></g></g></g></svg>